<svg width="25" height="26" viewBox="0 0 25 26" fill="none" xmlns="http://www.w3.org/2000/svg">
<path fill-rule="evenodd" clip-rule="evenodd" d="M19.7095 20.3224C19.1054 20.479 18.4887 20.1163 18.3321 19.5122C16.4391 12.2128 11.1468 4.87331 8.73585 2.12997C8.32389 1.66121 8.36993 0.947251 8.83869 0.535292C9.30745 0.123333 10.0214 0.169379 10.4334 0.638138C12.9531 3.50529 18.5002 11.1582 20.5196 18.9449C20.6763 19.549 20.3136 20.1657 19.7095 20.3224Z" fill="#1ABA0C"/>
<path fill-rule="evenodd" clip-rule="evenodd" d="M14.4269 24.8666C13.8033 24.8913 13.2778 24.4058 13.2531 23.7823C12.9549 16.2473 9.34369 7.95052 7.57099 4.75741C7.26809 4.2118 7.46484 3.52394 8.01046 3.22103C8.55607 2.91813 9.24393 3.11489 9.54684 3.6605C11.3995 6.99773 15.1932 15.6549 15.5112 23.6929C15.5359 24.3165 15.0504 24.842 14.4269 24.8666Z" fill="#11D500"/>
<path fill-rule="evenodd" clip-rule="evenodd" d="M21.8525 6.55962C22.1611 7.08981 21.9698 7.76318 21.4252 8.06363C14.845 11.6941 9.10829 18.5411 7.07641 21.5085C6.72921 22.0156 6.02557 22.1526 5.50478 21.8146C4.98399 21.4765 4.84327 20.7914 5.19046 20.2844C7.31405 17.183 13.2882 10.0164 20.3078 6.14361C20.8523 5.84317 21.5439 6.02942 21.8525 6.55962Z" fill="#11D500"/>
</svg>
