<svg width="105" height="31" viewBox="0 0 105 31" fill="none" xmlns="http://www.w3.org/2000/svg">
<path d="M1.52136 16.839C1.11146 7.72195 34.1421 5.82257 50.7086 6.01251C68.2999 7.15214 103.482 11.5967 103.482 20.2579C103.482 28.9191 68.2999 30.3246 50.7086 29.9447C34.4836 29.3749 1.93125 25.956 1.52136 16.839Z" fill="white" stroke="#BAE6FF" stroke-width="2" stroke-linecap="round"/>
<path d="M1.00382 14.0289C0.589763 7.27552 33.9557 5.86857 50.6904 6.00926C68.4603 6.85344 104 10.1457 104 16.5614C104 22.9771 68.4603 24.0182 50.6904 23.7368C34.3007 23.3148 1.41787 20.7822 1.00382 14.0289Z" fill="white" stroke="#BAE6FF" stroke-width="2" stroke-linecap="round"/>
<path fill-rule="evenodd" clip-rule="evenodd" d="M89.8181 3.43178C90.2805 4.05483 90.0471 4.87116 89.2968 5.25512C81.2764 9.35974 74.2622 17.1189 71.772 20.4924C71.3114 21.1163 70.3289 21.3121 69.5776 20.9296C68.8263 20.5471 68.5906 19.7312 69.0511 19.1073C71.6514 15.5847 78.9831 7.42027 87.6225 2.99887C88.3728 2.61491 89.3558 2.80874 89.8181 3.43178Z" fill="#11D500"/>
<path fill-rule="evenodd" clip-rule="evenodd" d="M67.1474 19.4915C66.9509 18.761 67.476 18.0562 68.3203 17.9173C77.3929 16.4249 86.8438 11.1824 90.4226 8.73854C91.0872 8.28473 92.0771 8.39442 92.6337 8.98354C93.1903 9.57265 93.1027 10.4181 92.4382 10.8719C88.6969 13.4267 78.7981 18.9564 69.0319 20.5629C68.1876 20.7017 67.3439 20.2221 67.1474 19.4915Z" fill="#1ABA0C"/>
<path fill-rule="evenodd" clip-rule="evenodd" d="M91.4789 15.8253C91.0457 16.4886 90.1006 16.7323 89.3678 16.3696C81.2637 12.3583 70.2638 11.0555 65.7947 10.9178C64.9454 10.8916 65.2272 10.6664 65.2851 9.91086C65.343 9.15531 72.4291 9.00996 73.2784 9.03613C77.9809 9.18108 82.2483 9.66718 90.9363 13.9675C91.6691 14.3302 91.912 15.162 91.4789 15.8253Z" fill="#11D500"/>
<path fill-rule="evenodd" clip-rule="evenodd" d="M72.7019 8.64841C72.7519 9.3901 72.088 9.99866 71.219 10.0077C61.9294 10.104 51.4506 13.8125 47.3808 15.667C46.6281 16.01 45.6636 15.7549 45.2265 15.0972C44.7895 14.4396 45.0453 13.6284 45.7981 13.2854C50.0476 11.349 61.0313 7.42557 71.0379 7.32178C71.9069 7.31276 72.6518 7.90671 72.7019 8.64841Z" fill="#11D500"/>
<path fill-rule="evenodd" clip-rule="evenodd" d="M43.9263 12.7954C44.168 12.0753 45.0225 11.6899 45.8348 11.9347C54.5638 14.5643 65.7395 14.0981 70.2304 13.5228C71.0643 13.416 71.8629 13.9398 72.014 14.6928C72.1651 15.4458 71.6115 16.1428 70.7776 16.2496C66.0828 16.851 54.3556 17.373 44.9593 14.5423C44.147 14.2976 43.6845 13.5155 43.9263 12.7954Z" fill="#1ABA0C"/>
<path fill-rule="evenodd" clip-rule="evenodd" d="M67.1463 20.1401C66.3952 20.5292 65.4361 20.3319 65.004 19.6995C60.225 12.705 51.3992 6.81145 47.5923 4.75731C46.8689 4.36699 46.6692 3.53849 47.1462 2.9068C47.6232 2.27512 48.5963 2.07946 49.3197 2.46978C53.3254 4.63118 62.6006 10.792 67.7239 18.2904C68.156 18.9228 67.8974 19.751 67.1463 20.1401Z" fill="#11D500"/>
<path fill-rule="evenodd" clip-rule="evenodd" d="M48.8529 4.30664C49.3153 4.92968 49.0819 5.74602 48.3316 6.12998C40.3112 10.2346 33.297 17.9937 30.8068 21.3672C30.3462 21.9912 29.3637 22.1869 28.6124 21.8044C27.8611 21.4219 27.6254 20.6061 28.0859 19.9821C30.6862 16.4596 38.0179 8.29513 46.6573 3.87373C47.4076 3.48977 48.3906 3.68359 48.8529 4.30664Z" fill="#11D500"/>
<path fill-rule="evenodd" clip-rule="evenodd" d="M26.1823 20.3664C25.9858 19.6358 26.5109 18.931 27.3552 18.7921C36.4278 17.2997 45.8787 12.0573 49.4575 9.6134C50.1221 9.15959 51.112 9.26927 51.6686 9.85839C52.2251 10.4475 52.1376 11.293 51.473 11.7468C47.7318 14.3016 37.833 19.8312 28.0668 21.4377C27.2225 21.5766 26.3788 21.0969 26.1823 20.3664Z" fill="#1ABA0C"/>
<path fill-rule="evenodd" clip-rule="evenodd" d="M50.5137 16.7002C50.0806 17.3635 49.1354 17.6072 48.4027 17.2445C40.2986 13.2332 29.2986 11.9304 24.8295 11.7927C23.9803 11.7665 23.3388 11.1328 23.3967 10.3772C23.4546 9.62168 24.19 9.0304 25.0392 9.05658C29.7417 9.20152 41.2832 10.5421 49.9711 14.8424C50.7039 15.2051 50.9468 16.0369 50.5137 16.7002Z" fill="#11D500"/>
<path fill-rule="evenodd" clip-rule="evenodd" d="M9.00335 11.7318C8.94713 10.9905 9.60592 10.3777 10.4748 10.3631C19.7633 10.2073 30.2109 6.43184 34.2651 4.55134C35.0149 4.20354 35.9816 4.45245 36.4241 5.10732C36.8667 5.76218 36.6176 6.575 35.8677 6.92281C31.6345 8.88636 20.6838 12.8799 10.6784 13.0478C9.80951 13.0623 9.05957 12.4732 9.00335 11.7318Z" fill="#11D500"/>
<path fill-rule="evenodd" clip-rule="evenodd" d="M37.7436 7.40079C37.5078 8.1224 36.6566 8.51321 35.8423 8.2737C27.0916 5.69995 15.9201 6.23767 11.4341 6.84167C10.601 6.95383 9.79816 6.43513 9.64077 5.68314C9.48339 4.93114 10.0311 4.2306 10.8641 4.11844C15.5538 3.48703 27.2763 2.89002 36.696 5.66054C37.5103 5.90005 37.9793 6.67918 37.7436 7.40079Z" fill="#1ABA0C"/>
<path fill-rule="evenodd" clip-rule="evenodd" d="M14.4628 0.204895C15.2106 -0.18901 16.1714 0.00209942 16.6088 0.631749C21.446 7.59549 30.3208 13.4324 34.1448 15.4621C34.8714 15.8478 35.078 16.675 34.6063 17.3097C34.1346 17.9444 33.1631 18.1463 32.4365 17.7606C28.4128 15.6249 19.0865 9.52366 13.9007 2.05821C13.4633 1.42856 13.715 0.598801 14.4628 0.204895Z" fill="#11D500"/>
</svg>
