<svg width="108" height="110" viewBox="0 0 108 110" fill="none" xmlns="http://www.w3.org/2000/svg">
<path d="M29.89 66.3545C28.881 55.4883 34.8363 46.61 37.9401 43.5291C39.2703 41.9654 45.3607 36.271 60.3443 35.1258C79.5983 33.6542 85.6975 44.3728 86.9512 53.2579C88.4922 64.1801 85.2726 79.4435 62.2381 86.1665C39.2037 92.8895 31.1511 79.9373 29.89 66.3545Z" fill="#FF4768" stroke="black"/>
<path d="M32.7923 26.3977C26.5956 28.7219 25.6676 34.3739 27.7016 37.35C24.5315 37.2516 22.3101 38.5521 21.1408 40.3597C19.8366 42.3757 19.8784 44.9975 21.3902 46.7296C22.1481 47.5979 23.2316 48.151 24.4282 48.4948C25.6276 48.8393 26.9775 48.9842 28.3145 49.0094C30.9874 49.0598 33.6829 48.6325 35.1819 48.2874L35.2143 48.28L35.2454 48.2683L45.3272 44.4868L45.4286 44.4488L45.5052 44.3722C48.0977 41.7794 49.3838 39.7488 50.1665 37.7561C50.6878 36.429 50.9862 35.1044 51.3059 33.6848C51.4562 33.0176 51.6112 32.3295 51.7963 31.6102C52.7305 27.9804 52.2169 25.1273 50.8497 23.356C49.4683 21.5662 47.2736 20.9661 45.1146 21.7759C42.0267 22.9341 40.7205 24.6271 40.4259 25.579C40.2412 25.8217 40.091 26.1613 39.9696 26.4836C39.8554 26.7871 39.7492 27.1253 39.6549 27.4576C39.414 27.046 39.0793 26.6609 38.6265 26.3525C37.4267 25.5354 35.5541 25.3618 32.7923 26.3977Z" fill="#FF4768" stroke="black" stroke-linecap="round"/>
<mask id="mask0_9_40" style="mask-type:alpha" maskUnits="userSpaceOnUse" x="20" y="21" width="34" height="29">
<path d="M33.6264 26.8429C27.4297 29.1671 26.5016 34.8191 28.5357 37.7952C25.3655 37.6967 23.1442 38.9972 21.9748 40.8049C20.6707 42.8209 20.7124 45.4427 22.2242 47.1747C22.9821 48.0431 24.0657 48.5962 25.2622 48.94C26.4616 49.2845 27.8115 49.4294 29.1485 49.4546C31.8214 49.505 34.5169 49.0777 36.016 48.7326L36.0483 48.7252L36.0794 48.7135L46.1613 44.932L46.2627 44.894L46.3393 44.8174C48.9317 42.2246 50.2179 40.1939 51.0005 38.2013C51.5218 36.8742 51.8202 35.5495 52.14 34.13C52.2903 33.4628 52.4453 32.7747 52.6304 32.0554C53.5645 28.4256 53.0509 25.5725 51.6837 23.8012C50.3023 22.0114 48.1076 21.4113 45.9486 22.2211C42.8607 23.3793 41.5545 25.0723 41.26 26.0242C41.0752 26.2669 40.925 26.6064 40.8037 26.9288C40.6895 27.2322 40.5833 27.5705 40.4889 27.9028C40.2481 27.4912 39.9134 27.1061 39.4605 26.7977C38.2608 25.9806 36.3882 25.807 33.6264 26.8429Z" fill="#FF4768" stroke="black" stroke-linecap="round"/>
</mask>
<g mask="url(#mask0_9_40)">
<path d="M28.8516 42.6732C25.753 48.7845 16.5898 46.7774 12.3956 45.0099C18.3022 35.7627 31.691 16.1749 37.9938 11.8006C45.8722 6.33264 47.1172 17.5507 51.1008 23.5523C55.0845 29.5539 40.5819 33.3964 38.4321 33.5712C36.2824 33.746 32.725 35.034 28.8516 42.6732Z" fill="#C12C46" stroke="black" stroke-linecap="round"/>
</g>
<circle cx="46.5097" cy="59.2153" r="2.39283" transform="rotate(-38.3383 46.5097 59.2153)" fill="black"/>
<circle cx="46.6078" cy="58.3749" r="0.598207" transform="rotate(-38.3383 46.6078 58.3749)" fill="white"/>
<circle cx="60.586" cy="48.0831" r="2.39283" transform="rotate(-38.3383 60.586 48.0831)" fill="black"/>
<circle cx="60.6842" cy="47.2427" r="0.598207" transform="rotate(-38.3383 60.6842 47.2427)" fill="white"/>
<circle cx="65.7932" cy="69.1331" r="9.66952" transform="rotate(-38.3383 65.7932 69.1331)" fill="#FFCF26" stroke="black"/>
<circle cx="65.9894" cy="67.4525" r="9.66952" transform="rotate(-38.3383 65.9894 67.4525)" fill="#FFCF26" stroke="black"/>
<path d="M54.8695 67.8572C53.6036 67.028 50.7049 71.9135 49.4138 74.4598C51.2037 77.3661 55.2221 81.6115 56.9763 75.3431C59.1691 67.5076 56.4519 68.8938 54.8695 67.8572Z" fill="#FF4768"/>
<path d="M51.1516 71.1839C52.319 69.498 55.0991 66.6893 56.8803 68.9415C59.1067 71.7567 56.7391 74.3918 54.666 77.5566" stroke="black" stroke-linecap="round"/>
<path d="M53.4282 58.3198C55.5453 58.4251 59.7291 57.6078 59.528 53.4959" stroke="black" stroke-linecap="round"/>
<path d="M69.1206 58.8749C70.1854 55.5923 73.3691 56.532 74.8278 57.4122L75.3522 63.8615C72.8313 63.5671 68.0558 62.1575 69.1206 58.8749Z" fill="#FF4768"/>
<path d="M74.3197 56.9182C72.6391 56.7219 69.2191 56.8335 68.9836 58.8502C68.6892 61.371 69.8024 62.7787 76.8957 64.033" stroke="black" stroke-linecap="round"/>
<path d="M33.6738 47.485L33.6738 47.485L33.6681 47.4865C33.4625 47.5436 33.2679 47.6545 33.1378 47.845C33.0082 48.0348 32.9856 48.2408 33.0016 48.4056C33.0311 48.7086 33.1978 48.9749 33.3115 49.1187C33.4242 49.2612 33.6052 49.3313 33.7844 49.302C35.8598 48.9628 41.089 47.5587 45.5877 44.6211C51.2452 40.9269 52.1881 37.0621 52.3033 36.0754C52.3277 35.8668 52.322 35.5833 52.1346 35.3613C51.922 35.1093 51.6268 35.1025 51.4552 35.1296C51.2818 35.157 51.1203 35.2311 50.9992 35.2979C50.8714 35.3684 50.752 35.4513 50.6562 35.5271C50.5788 35.5883 50.5212 35.6711 50.4908 35.765C49.4839 38.869 46.5354 41.4808 43.143 43.4955C39.7689 45.4994 36.0546 46.8542 33.6738 47.485Z" fill="#FFCF26" stroke="black" stroke-linejoin="round"/>
<circle cx="45.7246" cy="65.9375" r="2.39283" transform="rotate(-38.3383 45.7246 65.9375)" fill="#FF9797"/>
<circle cx="67.3083" cy="48.8683" r="2.39283" transform="rotate(-38.3383 67.3083 48.8683)" fill="#FF9797"/>
<path d="M58.804 64.6526C59.2842 65.4873 60.2048 66.6976 61.2823 67.3439M63.2321 61.3787L64.6325 63.2868M61.2823 67.3439C62.085 67.8253 62.9748 67.9937 63.8344 67.4601C64.5872 66.9929 65.0992 66.5911 65.4398 66.2589M61.2823 67.3439L64.6325 63.2868M64.6325 63.2868L66.0328 65.1949C66.0992 65.3416 66.0099 65.7027 65.4398 66.2589M65.4398 66.2589L67.3054 68.0079M63.6101 70.5268L70.5234 64.4342M66.6261 71.5853C67.5397 70.0424 69.5834 67.1976 70.4492 68.1615C71.3149 69.1253 71.6583 70.4385 71.7217 70.9746" stroke="black" stroke-linejoin="round"/>
</svg>
