<svg width="99" height="60" viewBox="0 0 99 60" fill="none" xmlns="http://www.w3.org/2000/svg">
<path d="M8.91683 31.3665C3.21671 31.3665 1.26389 34.2035 1 35.622C1 39.8776 4.95841 37.3243 8.91683 40.7287C15.371 46.2797 20.0004 57.219 50.876 58.6021C69.8764 59.4532 86.5017 46.6865 88.8768 43.282C90.7768 40.5585 95.4741 39.5939 96.7936 39.0265C98.377 37.8917 99.802 34.7709 92.8352 31.3665C84.1267 27.1109 81.7516 0.72644 50.876 0.72644C20.0004 0.72644 16.042 31.3665 8.91683 31.3665Z" fill="#646D76" stroke="black" stroke-linejoin="round"/>
<path d="M23.1444 27.9811C26.6045 22.0192 36.5588 9.9249 48.6957 9.24353" stroke="white" stroke-width="2" stroke-linecap="round" stroke-linejoin="round"/>
<circle cx="59.768" cy="10.0952" r="2.55513" fill="white"/>
<circle cx="38.4752" cy="41.6084" r="3.40684" fill="black"/>
<circle cx="39.3269" cy="40.7567" r="0.851709" fill="white"/>
<circle cx="64.0265" cy="41.6084" r="3.40684" fill="black"/>
<circle cx="64.8782" cy="40.7567" r="0.851709" fill="white"/>
<path d="M46 50.937C49.6667 51.1994 57 50.7795 57 47" stroke="black" stroke-linecap="round"/>
</svg>
