<svg width="99" height="60" viewBox="0 0 99 60" fill="none" xmlns="http://www.w3.org/2000/svg">
<path d="M8.78353 32.0092C3.08341 32.0092 1.13059 34.8463 0.866699 36.2648C0.866699 40.5204 4.82511 37.967 8.78353 41.3715C15.2377 46.9224 19.8671 57.8618 50.7427 59.2448C69.7431 60.0959 86.3684 47.3293 88.7435 43.9248C90.6435 41.2012 95.3408 40.2366 96.6603 39.6692C98.2437 38.5344 99.6687 35.4137 92.7019 32.0092C83.9934 27.7537 81.6183 1.3692 50.7427 1.3692C19.8671 1.3692 15.9087 32.0092 8.78353 32.0092Z" fill="#548750" stroke="black" stroke-linejoin="round"/>
<path d="M23.0111 28.6239C26.4712 22.6619 36.4255 10.5677 48.5624 9.88629" stroke="#97D592" stroke-width="2" stroke-linecap="round" stroke-linejoin="round"/>
<circle cx="59.6347" cy="10.738" r="2.55513" fill="#97D492"/>
<circle cx="40.0453" cy="35.4375" r="3.40684" fill="black"/>
<circle cx="40.8971" cy="34.5858" r="0.851709" fill="white"/>
<circle cx="65.5967" cy="35.4375" r="3.40684" fill="black"/>
<circle cx="66.4483" cy="34.5858" r="0.851709" fill="white"/>
<path d="M49 38.1663C51.6291 37.2862 57.0844 36.054 57.8731 38.1663C58.859 40.8068 53.9295 56.6496 49 38.1663Z" fill="#EB7171"/>
</svg>
