<svg width="99" height="60" viewBox="0 0 99 60" fill="none" xmlns="http://www.w3.org/2000/svg">
<path d="M8.78353 31.7238C3.08341 31.7238 1.13059 34.5609 0.866699 35.9794C0.866699 40.235 4.82511 37.6816 8.78353 41.0861C15.2377 46.637 19.8671 57.5764 50.7427 58.9594C69.7431 59.8105 86.3684 47.0438 88.7435 43.6394C90.6435 40.9158 95.3408 39.9512 96.6603 39.3838C98.2437 38.249 99.6687 35.1283 92.7019 31.7238C83.9934 27.4683 81.6183 1.0838 50.7427 1.0838C19.8671 1.0838 15.9087 31.7238 8.78353 31.7238Z" fill="#D595E6" stroke="black" stroke-linejoin="round"/>
<path d="M23.0111 28.3385C26.4712 22.3765 36.4255 10.2823 48.5624 9.60089" stroke="white" stroke-width="2" stroke-linecap="round" stroke-linejoin="round"/>
<circle cx="59.6347" cy="10.4526" r="2.55513" fill="white"/>
<circle cx="36.6385" cy="41.9658" r="3.40684" fill="black"/>
<circle cx="37.4902" cy="41.1141" r="0.851709" fill="white"/>
<circle cx="62.1898" cy="41.9658" r="3.40684" fill="black"/>
<circle cx="63.0415" cy="41.1141" r="0.851709" fill="white"/>
</svg>
