<svg width="99" height="60" viewBox="0 0 99 60" fill="none" xmlns="http://www.w3.org/2000/svg">
<path d="M8.91683 31.7238C3.21671 31.7238 1.26389 34.5609 1 35.9794C1 40.235 4.95841 37.6816 8.91683 41.0861C15.371 46.637 20.0004 57.5764 50.876 58.9594C69.8764 59.8105 86.5017 47.0438 88.8768 43.6394C90.7768 40.9158 95.4741 39.9512 96.7936 39.3838C98.377 38.249 99.802 35.1283 92.8352 31.7238C84.1267 27.4683 81.7516 1.0838 50.876 1.0838C20.0004 1.0838 16.042 31.7238 8.91683 31.7238Z" fill="#FFCF26" stroke="black" stroke-linejoin="round"/>
<path d="M46.9923 33.4488C49.2635 35.4361 54.6577 38.2184 58.0645 33.4488" stroke="black" stroke-linecap="round"/>
<path d="M66.5816 21.5248L61.4714 24.08L66.5816 26.6351" stroke="black" stroke-linecap="round"/>
<path d="M36.7718 26.6351L41.8821 24.08L36.7718 21.5249" stroke="black" stroke-linecap="round"/>
<path d="M23.1444 28.3385C26.6045 22.3765 36.5588 10.2823 48.6957 9.60089" stroke="white" stroke-width="2" stroke-linecap="round" stroke-linejoin="round"/>
<circle cx="59.768" cy="10.4526" r="2.55513" fill="white"/>
</svg>
