<svg width="99" height="59" viewBox="0 0 99 59" fill="none" xmlns="http://www.w3.org/2000/svg">
<path d="M8.91683 31.1956C3.21671 31.1956 1.26389 34.0326 1 35.4511C1 39.7067 4.95841 37.1534 8.91683 40.5578C15.371 46.1088 20.0004 57.0481 50.876 58.4312C69.8764 59.2823 86.5017 46.5156 88.8768 43.1111C90.7768 40.3876 95.4741 39.423 96.7936 38.8556C98.377 37.7208 99.802 34.6 92.8352 31.1956C84.1267 26.94 81.7516 0.555542 50.876 0.555542C20.0004 0.555542 16.042 31.1956 8.91683 31.1956Z" fill="#D9D9D9" stroke="black" stroke-linejoin="round"/>
<path d="M23.1444 27.8102C26.6045 21.8483 36.5588 9.754 48.6957 9.07263" stroke="white" stroke-width="2" stroke-linecap="round" stroke-linejoin="round"/>
<circle cx="59.768" cy="9.92433" r="2.55513" fill="white"/>
<circle cx="40.1786" cy="32.9205" r="3.40684" fill="black"/>
<circle cx="41.0304" cy="32.0688" r="0.851709" fill="white"/>
<circle cx="65.73" cy="32.9205" r="3.40684" fill="black"/>
<circle cx="66.5816" cy="32.0688" r="0.851709" fill="white"/>
<path d="M48.6957 38.0308C50.967 40.0181 56.3611 42.8004 59.768 38.0308" stroke="black" stroke-linecap="round"/>
</svg>
