<svg width="99" height="60" viewBox="0 0 99 60" fill="none" xmlns="http://www.w3.org/2000/svg">
<path d="M8.78353 31.3665C3.08341 31.3665 1.13059 34.2035 0.866699 35.622C0.866699 39.8776 4.82511 37.3243 8.78353 40.7287C15.2377 46.2797 19.8671 57.219 50.7427 58.6021C69.7431 59.4532 86.3684 46.6865 88.7435 43.282C90.6435 40.5585 95.3408 39.5939 96.6603 39.0265C98.2437 37.8917 99.6687 34.7709 92.7019 31.3665C83.9934 27.1109 81.6183 0.72644 50.7427 0.72644C19.8671 0.72644 15.9087 31.3665 8.78353 31.3665Z" fill="#FF6F9A" stroke="black" stroke-linejoin="round"/>
<path d="M23.0111 27.9811C26.4712 22.0192 36.4255 9.9249 48.5624 9.24353" stroke="white" stroke-width="2" stroke-linecap="round" stroke-linejoin="round"/>
<circle cx="59.6347" cy="10.0952" r="2.55513" fill="white"/>
<circle cx="38.3419" cy="41.6084" r="3.40684" fill="black"/>
<circle cx="39.1936" cy="40.7567" r="0.851709" fill="white"/>
<circle cx="63.8932" cy="41.6084" r="3.40684" fill="black"/>
<circle cx="64.7448" cy="40.7567" r="0.851709" fill="white"/>
</svg>
